<svg width="0" height="0" display="none" xmlns="http://www.w3.org/2000/svg">
  <symbol id="icon-chevron" viewBox="0 0 18 32">
    <path fill="#99b0cb" style="fill: var(--color1, #99b0cb)" d="M0.67 0.67c0.414-0.413 0.985-0.669 1.616-0.669s1.202 0.256 1.616 0.669l13.714 13.714c0.413 0.414 0.669 0.985 0.669 1.616s-0.256 1.202-0.669 1.616l-13.714 13.714c-0.411 0.397-0.971 0.642-1.588 0.642-1.262 0-2.286-1.023-2.286-2.286 0-0.617 0.245-1.177 0.642-1.589l-0.001 0.001 12.098-12.098-12.098-12.098c-0.413-0.414-0.669-0.985-0.669-1.616s0.256-1.202 0.669-1.616v0z"></path>
  </symbol>
  <symbol id="icon-clipboard" viewBox="0 0 32 32">
    <path fill="#4d4d4d" style="fill: var(--color2, #4d4d4d)" d="M8 6.667c-0.736 0-1.333 0.597-1.333 1.333v0 18.667c0 0.736 0.597 1.333 1.333 1.333h16c0.736 0 1.333-0.597 1.333-1.333v0-18.667c0-0.736-0.597-1.333-1.333-1.333v0h-2.667c-0.736 0-1.333-0.597-1.333-1.333s0.597-1.333 1.333-1.333v0h2.667c2.209 0 4 1.791 4 4v0 18.667c0 2.209-1.791 4-4 4v0h-16c-2.209 0-4-1.791-4-4v0-18.667c0-2.209 1.791-4 4-4v0h2.667c0.736 0 1.333 0.597 1.333 1.333s-0.597 1.333-1.333 1.333v0h-2.667z"></path>
    <path fill="#4d4d4d" style="fill: var(--color2, #4d4d4d)" d="M9.333 4c0-1.473 1.194-2.667 2.667-2.667v0h8c1.473 0 2.667 1.194 2.667 2.667v0 2.667c0 1.473-1.194 2.667-2.667 2.667v0h-8c-1.473 0-2.667-1.194-2.667-2.667v0-2.667zM20 4h-8v2.667h8v-2.667z"></path>
  </symbol>
  <symbol id="icon-clock" viewBox="0 0 32 32">
    <path fill="#4d4d4d" style="fill: var(--color2, #4d4d4d)" d="M1.333 16c0-8.1 6.566-14.667 14.667-14.667s14.667 6.566 14.667 14.667v0c0 8.1-6.566 14.667-14.667 14.667s-14.667-6.566-14.667-14.667v0zM16 4c-6.627 0-12 5.373-12 12s5.373 12 12 12v0c6.627 0 12-5.373 12-12s-5.373-12-12-12v0z"></path>
    <path fill="#4d4d4d" style="fill: var(--color2, #4d4d4d)" d="M16 6.667c0.736 0 1.333 0.597 1.333 1.333v0 7.449l3.609 3.609c0.261 0.244 0.424 0.591 0.424 0.975 0 0.736-0.597 1.333-1.333 1.333-0.385 0-0.731-0.163-0.975-0.424l-0.001-0.001-4-4c-0.241-0.241-0.391-0.574-0.391-0.942v-8c0-0.736 0.597-1.333 1.333-1.333v0z"></path>
  </symbol>
  <symbol id="icon-expense" viewBox="0 0 32 32">
    <path fill="#4d4d4d" style="fill: var(--color2, #4d4d4d)" d="M29.662 10.453c-0.161-0.384-0.534-0.649-0.968-0.649-0.578 0-1.047 0.469-1.047 1.047 0 0.246 0.085 0.472 0.227 0.651l-0.002-0.002c0.45 0.718 0.688 1.548 0.692 2.396 0.009 0.151 0.009 0.3 0 0.45-0.092 0.789-0.365 1.501-0.775 2.111l0.011-0.017-0.148 0.21c-0.798 1.020-1.785 1.854-2.913 2.458l-0.049 0.024h-0.105l-0.105 0.053c-2.415 1.284-5.281 2.038-8.323 2.038-0.055 0-0.111-0-0.166-0.001l0.008 0c-0.086 0.002-0.188 0.002-0.29 0.002-2.989 0-5.809-0.728-8.29-2.018l0.1 0.047-0.105-0.053-0.135-0.071c-1.155-0.634-2.121-1.47-2.885-2.469l-0.016-0.022-0.124-0.178c-0.491-0.721-0.794-1.606-0.818-2.559l-0-0.006c0-3.968 5.76-7.328 12.564-7.328 0.738 0 1.476 0.037 2.21 0.116 0.033 0.004 0.071 0.006 0.109 0.006 0.581 0 1.053-0.471 1.053-1.053 0-0.543-0.411-0.99-0.939-1.047l-0.005-0c-0.694-0.074-1.499-0.116-2.314-0.116-0.040 0-0.081 0-0.121 0l0.006-0c-8.219 0-14.656 4.188-14.656 9.422v6.283c-0.006 0.098-0.010 0.213-0.010 0.329s0.004 0.231 0.011 0.345l-0.001-0.016c0.149 1.253 0.61 2.376 1.301 3.319l-0.014-0.020c0.951 1.289 2.142 2.342 3.514 3.111l0.056 0.029c2.717 1.467 5.947 2.33 9.378 2.33 0.148 0 0.296-0.002 0.443-0.005l-0.022 0c3.404 0.053 6.766-0.761 9.769-2.366 1.428-0.798 2.619-1.852 3.549-3.111l0.021-0.030c0.681-0.907 1.15-2.010 1.315-3.21l0.004-0.036c0.006-0.1 0.010-0.217 0.010-0.334s-0.004-0.234-0.011-0.35l0.001 0.016v-6.283c-0.011-1.277-0.38-2.465-1.012-3.471l0.016 0.028zM28.564 20.178c0.009 0.151 0.009 0.302 0 0.452-0.103 0.828-0.418 1.618-0.912 2.293-0.786 1.022-1.759 1.857-2.873 2.467l-0.047 0.024c-2.437 1.321-5.336 2.097-8.416 2.097-0.11 0-0.22-0.001-0.329-0.003l0.016 0c-0.091 0.002-0.199 0.003-0.307 0.003-3.080 0-5.978-0.776-8.51-2.144l0.095 0.047c-1.154-0.632-2.121-1.465-2.885-2.46l-0.016-0.021c-0.488-0.645-0.824-1.431-0.939-2.287l-0.003-0.025c-0.004-0.066-0.007-0.143-0.007-0.22s0.002-0.155 0.007-0.231l-0.001 0.010v-1.392c0.22 0.231 0.452 0.45 0.702 0.67l0.199 0.167c0.21 0.174 0.428 0.347 0.658 0.514l0.252 0.188c0.304 0.21 0.619 0.409 0.953 0.606l0.315 0.169c2.671 1.4 5.835 2.221 9.191 2.221 0.103 0 0.206-0.001 0.309-0.002l-0.016 0c0.084 0.001 0.182 0.002 0.281 0.002 3.368 0 6.544-0.825 9.336-2.284l-0.111 0.053 0.263-0.137c0.345-0.199 0.658-0.409 0.972-0.617l0.252-0.156c0.236-0.169 0.46-0.343 0.668-0.524l0.199-0.167c0.252-0.22 0.482-0.441 0.702-0.67v1.36z"></path>
    <path fill="#4d4d4d" style="fill: var(--color2, #4d4d4d)" d="M17.047 8.663c0-0.578-0.469-1.047-1.047-1.047s-1.047 0.469-1.047 1.047v0c-1.702 0.042-3.067 1.432-3.067 3.14s1.364 3.099 3.063 3.14l0.004 0v2.094h-2.094c-0.578 0-1.047 0.469-1.047 1.047s0.469 1.047 1.047 1.047v0h2.094c0 0.578 0.469 1.047 1.047 1.047s1.047-0.469 1.047-1.047v0c1.735 0 3.141-1.406 3.141-3.141s-1.406-3.141-3.141-3.141v-2.094h2.094c0.013 0.001 0.028 0.001 0.043 0.001 0.578 0 1.047-0.469 1.047-1.047s-0.469-1.047-1.047-1.047c-0.015 0-0.030 0-0.045 0.001l0.002-0h-2.094zM18.094 15.991c-0.001 0.578-0.469 1.046-1.047 1.047h-0v-2.094c0.578 0.001 1.046 0.469 1.047 1.047v0zM14.951 12.85c-0.578 0-1.047-0.469-1.047-1.047s0.469-1.047 1.047-1.047v2.094zM22.281 6.569c0.279 0 0.546-0.107 0.745-0.304l1.351-1.362v5.852c-0.001 0.013-0.001 0.028-0.001 0.043 0 0.578 0.469 1.047 1.047 1.047s1.047-0.469 1.047-1.047c0-0.015-0-0.030-0.001-0.045l0 0.002v-5.852l1.351 1.351c0.183 0.163 0.426 0.262 0.693 0.262 0.577 0 1.045-0.468 1.045-1.045 0-0.266-0.099-0.509-0.263-0.694l0.001 0.001-3.141-3.143c-0.189-0.188-0.45-0.303-0.738-0.303s-0.548 0.116-0.738 0.303l-3.141 3.141c-0.193 0.19-0.312 0.453-0.312 0.745 0 0.577 0.468 1.045 1.045 1.045 0.003 0 0.007-0 0.010-0h-0.001z"></path>
    <path fill="#4d4d4d" style="fill: var(--color2, #4d4d4d)" d="M24.444 1.401c0.539-0.533 1.408-0.533 1.947 0l3.15 3.15 0.007 0.011c0.205 0.239 0.33 0.553 0.33 0.895 0 0.762-0.618 1.38-1.38 1.38-0.343 0-0.656-0.125-0.897-0.332l0.002 0.002-0.011-0.007-0.791-0.791v5.049c0 0.762-0.618 1.38-1.38 1.38s-1.38-0.618-1.38-1.38v-5.045l-0.782 0.786v0.002c-0.249 0.247-0.593 0.4-0.971 0.4-0.002 0-0.004 0-0.007-0h0c-0.002 0-0.005 0-0.007 0-0.57 0-1.060-0.347-1.269-0.841l-0.003-0.009zM24.444 1.401v0zM22.281 6.901h0.004l-0.004-0.332v0.332h0.002zM24.914 1.874l-3.14 3.141c-0.132 0.129-0.214 0.309-0.214 0.508 0 0.393 0.318 0.711 0.711 0.711 0.003 0 0.005 0 0.008-0h0.003c0.002 0 0.004 0 0.006 0 0.195 0 0.372-0.079 0.501-0.206l-0 0 1.92-1.934v6.661c0 0.394 0.32 0.714 0.714 0.714s0.714-0.32 0.714-0.714v-6.656l1.909 1.909c0.126 0.114 0.293 0.184 0.477 0.184 0.393 0 0.711-0.318 0.711-0.711 0-0.184-0.070-0.352-0.185-0.478l0.001 0.001-3.129-3.129c0-0.002 0 0 0 0-0.129-0.129-0.307-0.208-0.504-0.208s-0.375 0.079-0.504 0.208l0-0zM16 4.142c0.821-0.005 1.644 0.034 2.462 0.116 0.684 0.093 1.206 0.673 1.206 1.375 0 0.766-0.621 1.387-1.387 1.387-0.038 0-0.075-0.002-0.112-0.004l0.005 0c-0.651-0.072-1.407-0.114-2.172-0.114-0.001 0-0.002 0-0.003 0h0c-3.351 0-6.432 0.828-8.665 2.132-2.244 1.308-3.564 3.051-3.564 4.862 0.024 0.889 0.303 1.709 0.767 2.393l-0.010-0.016 0.121 0.171c0.75 0.982 1.679 1.786 2.744 2.374l0.045 0.023 0.132 0.071 0.101 0.050c2.338 1.219 5.105 1.935 8.040 1.935 0.1 0 0.199-0.001 0.299-0.002l-0.015 0h0.009c0.043 0 0.095 0.001 0.146 0.001 2.988 0 5.804-0.741 8.272-2.051l-0.096 0.046 0.005-0.004 0.176-0.087h0.1c1.102-0.6 2.026-1.387 2.764-2.328l0.014-0.019 0.139-0.197c0.386-0.581 0.628-1.244 0.708-1.936 0.007-0.133 0.007-0.267 0-0.4v-0.020c-0.003-0.818-0.238-1.58-0.643-2.226l0.010 0.018c-0.174-0.229-0.278-0.518-0.278-0.832 0-0.764 0.619-1.383 1.383-1.383 0.155 0 0.304 0.025 0.443 0.072l-0.010-0.003c0.368 0.124 0.668 0.398 0.823 0.754 0.638 1.024 1.021 2.264 1.031 3.594l0 0.003v6.274c0.014 0.233 0.014 0.466 0 0.699v0.012l-0.004 0.012c-0.177 1.294-0.668 2.449-1.393 3.418l0.014-0.019c-0.98 1.328-2.207 2.414-3.621 3.206l-0.061 0.031c-2.781 1.516-6.091 2.408-9.609 2.408-0.111 0-0.221-0.001-0.331-0.003l0.017 0c-0.126 0.003-0.275 0.004-0.424 0.004-3.487 0-6.77-0.876-9.64-2.42l0.109 0.053-0.005-0.004c-1.472-0.822-2.7-1.907-3.658-3.205l-0.022-0.031c-0.71-0.967-1.192-2.144-1.346-3.421l-0.003-0.035v-0.018c-0.006-0.103-0.010-0.224-0.010-0.345s0.004-0.242 0.011-0.361l-0.001 0.016v-6.272c0-2.766 1.7-5.214 4.398-6.955 2.697-1.742 6.428-2.8 10.59-2.8zM18.395 4.921c-0.678-0.072-1.466-0.112-2.262-0.112-0.046 0-0.092 0-0.138 0l0.007-0c-4.057 0-7.657 1.033-10.231 2.695-2.578 1.662-4.094 3.925-4.094 6.393v6.302c-0.006 0.091-0.009 0.198-0.009 0.305s0.003 0.214 0.010 0.319l-0.001-0.015c0.133 1.131 0.555 2.208 1.223 3.131 0.922 1.249 2.076 2.27 3.406 3.016l0.054 0.028c2.671 1.442 5.845 2.289 9.218 2.289 0.147 0 0.293-0.002 0.44-0.005l-0.022 0h0.011c3.348 0.053 6.652-0.747 9.604-2.325 1.384-0.774 2.538-1.796 3.439-3.016l0.021-0.029h0.002c0.672-0.907 1.102-1.964 1.255-3.079 0.006-0.093 0.009-0.201 0.009-0.31s-0.003-0.218-0.010-0.325l0.001 0.015v-6.297c-0.010-1.213-0.361-2.341-0.961-3.297l0.015 0.026-0.014-0.023-0.011-0.025c-0.112-0.256-0.363-0.431-0.655-0.431-0.394 0-0.713 0.319-0.713 0.713 0 0.163 0.055 0.314 0.148 0.434l-0.001-0.002 0.012 0.014 0.009 0.014c0.48 0.77 0.738 1.657 0.741 2.564 0.009 0.16 0.009 0.32 0 0.48v0.018c-0.098 0.845-0.39 1.606-0.829 2.26l0.012-0.018-0.007 0.007-0.155 0.222c-0.828 1.058-1.851 1.922-3.021 2.548l-0.051 0.025-0.071 0.037h-0.11l-0.032 0.018c-2.46 1.309-5.38 2.077-8.479 2.077-0.053 0-0.106-0-0.159-0.001l0.008 0c-0.086 0.001-0.187 0.002-0.288 0.002-3.045 0-5.917-0.742-8.444-2.056l0.102 0.048h-0.002l-0.112-0.057-0.135-0.073c-1.197-0.659-2.199-1.526-2.991-2.562l-0.017-0.023-0.007-0.009-0.13-0.183c-0.526-0.772-0.849-1.72-0.873-2.742l-0-0.006v-0.004c0-2.155 1.559-4.076 3.895-5.44 2.347-1.369 5.547-2.222 9.001-2.222 0.75 0 1.499 0.039 2.244 0.117 0.023 0.003 0.049 0.004 0.076 0.004 0.397 0 0.72-0.322 0.72-0.72 0-0.371-0.28-0.676-0.641-0.715l-0.003-0zM14.658 8.341c0.148-0.614 0.693-1.063 1.343-1.063 0.645 0 1.187 0.443 1.338 1.041l0.002 0.010h1.801c0.762 0 1.38 0.618 1.38 1.38s-0.618 1.38-1.38 1.38v0h-1.76v1.444c1.762 0.185 3.123 1.662 3.123 3.458 0 1.809-1.383 3.296-3.149 3.46l-0.014 0.001c-0.151 0.611-0.695 1.058-1.343 1.058-0.643 0-1.184-0.44-1.338-1.036l-0.002-0.010h-1.801c-0.762 0-1.38-0.618-1.38-1.38s0.618-1.38 1.38-1.38v0h1.76v-1.442c-1.766-0.18-3.133-1.66-3.133-3.459 0-1.813 1.388-3.301 3.159-3.461l0.013-0.001zM16 7.95c0 0 0 0 0 0-0.393 0-0.712 0.318-0.713 0.711v0.334h-0.336c-1.508 0.055-2.709 1.291-2.709 2.807s1.201 2.752 2.704 2.807l0.005 0h0.338v2.761h-2.43c-0.394 0-0.714 0.32-0.714 0.714s0.32 0.714 0.714 0.714h2.43v0.334c0 0.394 0.319 0.713 0.713 0.713s0.713-0.319 0.713-0.713v-0.334h0.334c1.508-0.055 2.709-1.291 2.709-2.807s-1.201-2.752-2.704-2.807l-0.005-0h-0.334v-2.761h2.428c0.394 0 0.714-0.32 0.714-0.714s-0.32-0.714-0.714-0.714h-2.432v-0.332c0-0.001 0-0.001 0-0.002 0-0.393-0.318-0.712-0.711-0.713h-0zM14.62 11.172c-0.229 0.122-0.381 0.359-0.381 0.631s0.153 0.509 0.378 0.629l0.004 0.002v-1.262zM13.572 11.803c0-0.763 0.619-1.38 1.381-1.38h0.336v2.761h-0.338c-0.762 0-1.38-0.618-1.38-1.38 0-0.001 0-0.001 0-0.002v0zM18.025 15.015c-0.261-0.261-0.613-0.404-0.978-0.404h-0.334zM18.025 16.967l-0 0c0.25-0.25 0.404-0.595 0.404-0.976s-0.154-0.726-0.404-0.976zM16.713 14.61v2.761h0.334c0.001 0 0.001 0 0.002 0 0.381 0 0.726-0.154 0.976-0.404zM17.38 15.36c0.228 0.121 0.38 0.357 0.38 0.628 0 0.001 0 0.002 0 0.003v-0c-0 0.272-0.153 0.509-0.377 0.629l-0.004 0.002v-1.262zM3.104 17.956l0.574 0.601c0.213 0.222 0.434 0.434 0.677 0.647l0.196 0.164c0.203 0.169 0.418 0.338 0.642 0.5l0.004 0.004 0.247 0.185c0.292 0.201 0.596 0.393 0.921 0.587l0.306 0.164c2.626 1.376 5.738 2.183 9.038 2.183 0.101 0 0.202-0.001 0.302-0.002l-0.015 0h0.011c0.081 0.001 0.177 0.002 0.272 0.002 3.314 0 6.438-0.812 9.185-2.248l-0.109 0.052 0.254-0.132c0.332-0.192 0.636-0.395 0.949-0.604l0.009-0.004 0.244-0.153c0.226-0.16 0.437-0.325 0.635-0.498l0.005-0.002 0.196-0.165c0.244-0.213 0.466-0.427 0.677-0.647l0.574-0.603v2.183c0.009 0.16 0.009 0.32 0 0.48v0.011l-0.002 0.011c-0.119 0.931-0.466 1.763-0.983 2.462l0.010-0.014-0.004 0.005c-0.815 1.060-1.824 1.926-2.98 2.558l-0.049 0.025c-2.483 1.345-5.436 2.136-8.573 2.136-0.111 0-0.222-0.001-0.332-0.003l0.017 0c-3.093 0.053-6.146-0.681-8.876-2.133h-0.004c-1.195-0.655-2.196-1.518-2.988-2.55l-0.016-0.022-0.004-0.002c-0.521-0.689-0.88-1.529-1.003-2.444l-0.003-0.027v-0.021c-0.005-0.075-0.008-0.162-0.008-0.25 0-0.078 0.002-0.155 0.007-0.232l-0.001 0.011v-2.215zM3.771 19.573v0.626c-0.004 0.058-0.006 0.126-0.006 0.194s0.002 0.136 0.006 0.203l-0-0.009c0.103 0.777 0.404 1.516 0.875 2.144 0.751 0.979 1.681 1.781 2.746 2.367l0.045 0.023c2.39 1.295 5.233 2.056 8.254 2.056 0.107 0 0.214-0.001 0.32-0.003l-0.016 0h0.011c0.093 0.002 0.203 0.003 0.313 0.003 3.021 0 5.865-0.761 8.349-2.102l-0.093 0.046c1.118-0.61 2.055-1.415 2.795-2.378l0.015-0.021c0.457-0.624 0.748-1.355 0.846-2.124 0.007-0.133 0.007-0.265 0-0.398v-0.592l-0.149 0.132-0.005 0.004-0.196 0.165c-0.206 0.18-0.433 0.358-0.668 0.526l-0.027 0.018-0.009 0.005-0.254 0.158c-0.256 0.179-0.579 0.387-0.909 0.583l-0.080 0.044-0.012 0.007-0.261 0.135h-0.002c-2.727 1.432-5.957 2.272-9.384 2.272-0.096 0-0.193-0.001-0.289-0.002l0.015 0c-0.086 0.001-0.187 0.002-0.288 0.002-3.413 0-6.631-0.836-9.46-2.314l0.113 0.054h-0.005l-0.329-0.178c-0.4-0.236-0.717-0.441-1.026-0.655l0.056 0.037-0.011-0.007-0.249-0.187c-0.263-0.191-0.483-0.363-0.697-0.542l0.021 0.017v-0.002l-0.206-0.172c-0.060-0.053-0.108-0.096-0.156-0.139l0.008 0.007z"></path>
  </symbol>
</svg>